<?xml version="1.0" standalone="no"?><!DOCTYPE svg PUBLIC "-//W3C//DTD SVG 1.1//EN" "http://www.w3.org/Graphics/SVG/1.1/DTD/svg11.dtd"><svg t="1676975713455" class="icon" viewBox="0 0 1024 1024" version="1.1" xmlns="http://www.w3.org/2000/svg" p-id="7827" xmlns:xlink="http://www.w3.org/1999/xlink" width="200" height="200"><path d="M960.4172 550.336a13208.696 13208.696 0 0 0-46.504-38.344c14.968-12.304 30.296-24.928 46.504-38.368l52.408-43.32a30.72 30.72 0 0 0 4.224-43.24 30.744 30.744 0 0 0-43.224-4.216l-52.616 43.464a10400.752 10400.752 0 0 1-56.064 46.224c-133.168-105.408-230.776-159.04-417.08-163.208-167.448-3.168-327.352 61.432-439.808 178.664-6.408 6.688-8.864 15.448-8.088 24-0.784 8.552 1.68 17.312 8.088 24 109.44 114.064 264.176 178.8 426.312 178.8 4.504 0 9-0.064 13.512-0.152 186.288-4.168 283.896-57.816 417.064-163.216 17.728 14.488 36.168 29.76 56.064 46.224l52.616 43.464a30.44 30.44 0 0 0 19.472 6.992 30.712 30.712 0 0 0 19.536-54.44l-52.416-43.328z m-745.688-38.376c0 38.016-21.008 70.12-46.104 71.08a513.856 513.856 0 0 1-96.216-71.048 511.88 511.88 0 0 1 96.352-71.08c25.032 1.08 45.968 33.088 45.968 71.048zM446.7132 653.2a537.8 537.8 0 0 1-211.904-37.92c24.984-24.328 41.352-61.376 41.352-103.328 0-41.904-16.304-78.864-41.232-103.208a543.6 543.6 0 0 1 211.768-38.008c163.664 3.664 247.056 45.616 369.248 141.248C693.7612 607.6 610.3692 649.536 446.7132 653.2z" fill="#1296db" p-id="7828"></path></svg>